<svg width="92" height="25" viewBox="0 0 92 25" fill="none" xmlns="http://www.w3.org/2000/svg">
<path d="M85.5907 10.8489C85.6214 10.8175 85.6214 10.8175 85.6521 10.8175C86.1734 10.2514 86.8174 9.96841 87.5534 9.84262C88.3201 9.71684 89.0867 9.77973 89.7921 10.1256C90.7734 10.5659 91.2947 11.3835 91.5707 12.4212C91.6627 12.7986 91.7241 13.2074 91.7241 13.6162C91.7241 15.4401 91.7241 16.9181 91.7241 18.7105C91.7241 19.4338 91.1414 20.0313 90.4361 20.0313C89.7001 20.0313 89.1481 19.4338 89.1481 18.7105C89.1481 17.0753 89.1481 15.7546 89.1481 14.1194C89.1481 13.8049 89.1174 13.4904 88.9948 13.176C88.7801 12.6099 88.3507 12.2955 87.7374 12.2011C87.2467 12.1382 86.7868 12.1697 86.3881 12.4841C85.9588 12.7986 85.7441 13.2388 85.6521 13.7734C85.6214 13.9307 85.6214 14.0879 85.6214 14.2451C85.6214 15.8175 85.6214 17.0753 85.6214 18.6791C85.6214 19.2451 85.3761 19.6854 84.8548 19.937C84.0268 20.3458 83.0761 19.6854 83.0454 18.742C83.0454 18.7105 83.0454 18.6791 83.0454 18.6477C83.0454 14.6225 83.0454 10.7231 83.0454 6.69797C83.0454 6.06904 83.4134 5.53445 83.9961 5.37721C84.7934 5.15709 85.6521 5.75457 85.6521 6.69797C85.6521 7.95583 85.6521 9.46526 85.6521 10.7231V10.8489H85.5907Z" fill="#171460"/>
<path d="M27.6 10.1259V9.96867C27.6 9.46552 27.6 8.99383 27.6307 8.49068C27.7533 6.82402 28.888 5.62905 30.4827 5.40892C31.0347 5.34603 31.556 5.34603 32.0773 5.50326C32.4453 5.5976 32.752 5.78628 32.9667 6.13219C33.3653 6.79257 33.028 7.61018 32.2613 7.70452C32.0467 7.73597 31.8013 7.70452 31.556 7.73597C31.4027 7.73597 31.2187 7.73597 31.0653 7.79886C30.5133 7.92464 30.176 8.302 30.1453 8.89949C30.1147 9.30829 30.1453 9.74854 30.1453 10.1888H30.268C30.728 10.1888 31.188 10.1888 31.648 10.1888C32.2 10.1888 32.6907 10.629 32.752 11.1636C32.8133 11.7297 32.476 12.2643 31.924 12.4215C31.832 12.4529 31.7093 12.4529 31.6173 12.4529C31.1573 12.4529 30.728 12.4529 30.268 12.4529H30.1147V12.5787C30.1147 14.7171 30.1147 16.541 30.1147 18.6479C30.1147 19.214 29.8693 19.6542 29.348 19.9058C28.52 20.3146 27.5387 19.6856 27.508 18.7737C27.508 18.3963 27.508 18.019 27.508 17.6102C27.508 16.0379 27.508 14.5599 27.508 12.5473V12.3901H27.3853C27.0173 12.3901 26.6493 12.3901 26.2507 12.3901C25.6987 12.3901 25.2387 11.9498 25.1773 11.4152C25.116 10.8492 25.4533 10.3146 26.0053 10.1573C26.0973 10.1259 26.1893 10.1259 26.312 10.1259C26.68 10.1259 27.048 10.1259 27.416 10.1259H27.6Z" fill="#171460"/>
<path d="M77.8012 9.84302C78.4452 9.87446 79.0585 9.93736 79.6719 10.1889C80.1932 10.4091 80.5612 10.7864 80.8679 11.2581C81.1439 11.6984 81.0212 12.2644 80.5612 12.6103C80.1626 12.9248 79.7025 12.9248 79.2425 12.5789C79.0585 12.4531 78.8745 12.2644 78.6905 12.1386C78.2305 11.7613 77.4332 11.7613 76.9425 12.1072C76.6359 12.3273 76.4825 12.7047 76.5745 13.0506C76.6665 13.3336 76.8505 13.5223 77.1265 13.6166C77.3719 13.7109 77.6479 13.7424 77.8932 13.8053C78.4452 13.9311 78.9972 14.0569 79.5185 14.2141C80.1625 14.4342 80.6839 14.7801 81.0825 15.3462C81.7879 16.321 81.7572 17.7047 81.0825 18.7424C80.5612 19.4971 79.8559 19.9374 78.9665 20.0946C77.8932 20.3147 76.8505 20.2518 75.8385 19.7801C75.2559 19.4971 74.7652 19.0883 74.3972 18.5223C74.1519 18.1135 74.1825 17.6418 74.4892 17.2958C74.9492 16.7613 75.5625 16.7298 76.1145 17.233C76.2065 17.3273 76.2985 17.4216 76.3905 17.516C76.8505 18.0191 77.4332 18.2078 78.0772 18.1449C78.3225 18.1135 78.5372 18.0506 78.7519 17.8933C79.2425 17.516 79.2426 16.7927 78.7212 16.4468C78.4759 16.2896 78.1999 16.2267 77.9239 16.1638C77.3719 16.0065 76.7892 15.9122 76.2372 15.7235C75.5932 15.5348 75.0412 15.1575 74.6732 14.5914C73.9985 13.6481 74.0292 12.2644 74.7652 11.2581C75.3479 10.4405 76.1452 10.0003 77.1265 9.84302C77.3105 9.84302 77.5559 9.84302 77.8012 9.84302Z" fill="#171460"/>
<path d="M72.3733 15.0627C72.3733 16.4149 72.3733 17.3583 72.3733 18.7105C72.3733 19.3394 71.9746 19.874 71.3919 19.9998C70.5639 20.1885 69.8279 19.591 69.7666 18.8048C69.7666 18.7419 69.7666 18.7105 69.7666 18.6476C69.7666 15.9746 69.7666 14.0564 69.7666 11.4149C69.7666 10.7545 70.1653 10.2199 70.8093 10.0627C71.5453 9.90547 72.3119 10.4715 72.3426 11.2577C72.3733 11.6036 72.3426 11.5721 72.3426 11.8866V15.0627H72.3733Z" fill="#171460"/>
<path d="M43.6694 15.0315C43.6694 16.3522 43.6694 17.39 43.6694 18.7107C43.6694 19.3711 43.2401 19.9057 42.5654 20.0315C41.8294 20.1573 41.0934 19.5598 41.0627 18.7736C41.0627 18.4906 41.0627 18.239 41.0627 17.956V11.3522C41.0627 10.629 41.6454 10.0315 42.3507 10.0315C43.0561 10.0315 43.6387 10.629 43.6387 11.3522C43.6694 12.7045 43.6694 13.6793 43.6694 15.0315Z" fill="#171460"/>
<path d="M69.4907 6.94967C69.4907 6.03772 70.2267 5.31445 71.1467 5.31445C72.0053 5.31445 72.7106 6.06917 72.68 6.98112C72.68 7.86162 71.944 8.58489 71.0853 8.58489C70.196 8.58489 69.46 7.83018 69.4907 6.94967Z" fill="#171460"/>
<path d="M43.976 6.98112C43.976 7.86162 43.2706 8.58489 42.3813 8.58489C41.5226 8.58489 40.7866 7.86162 40.7866 6.94967C40.7866 6.03772 41.492 5.31445 42.3813 5.31445C43.2706 5.31445 43.976 6.06917 43.976 6.98112Z" fill="#171460"/>
<path d="M48.852 11.3207C48.9133 11.2264 48.944 11.1635 49.0666 11.0063C49.3733 10.6604 49.7413 10.3145 50.14 10.1572C50.5386 9.99999 50.9373 9.8742 51.3666 9.84275C52.0413 9.77986 52.716 9.84275 53.36 10.0943C54.004 10.3459 54.556 10.7233 54.9853 11.2264C55.384 11.6981 55.66 12.2327 55.8746 12.8302C56.028 13.2704 56.12 13.7107 56.1506 14.1824C56.1813 14.5912 56.1813 15.0943 56.1506 15.5346C56.0893 16.478 55.844 17.3585 55.3226 18.1446C54.7093 19.1195 53.7586 19.8428 52.6546 20.0943C52.1946 20.2201 51.7346 20.2201 51.2746 20.1887C50.7533 20.1572 50.324 20.1258 49.8026 19.7799C49.3733 19.5283 49.1893 19.3082 48.944 18.9937C48.944 18.9937 48.944 19.088 48.9133 19.0566C48.9133 19.088 48.9133 19.088 48.9133 19.1195V23.6163C48.9133 24.2453 48.4226 24.8427 47.7786 24.9056C47.0733 25 46.46 24.4968 46.3373 23.805C46.3066 23.7107 46.3066 23.6163 46.3066 23.522V12.3899C46.3066 12.044 46.3066 11.6981 46.3066 11.3836C46.3066 11.0063 46.4293 10.6604 46.7053 10.4088C47.0733 10.0943 47.472 9.99999 47.932 10.1258C48.392 10.283 48.668 10.5975 48.7906 11.0692C48.852 11.2264 48.852 11.2578 48.852 11.3207ZM53.636 14.9685C53.636 14.9056 53.636 14.7799 53.6053 14.6541C53.5746 14.2453 53.4826 13.7736 53.268 13.3962C53.0533 12.9874 52.7466 12.6415 52.3173 12.4214C51.9186 12.2327 51.52 12.1384 51.0906 12.1698C50.692 12.2012 50.324 12.327 49.9866 12.5472C49.496 12.8616 49.1893 13.3962 49.036 13.9622C48.8826 14.4025 48.8826 14.8742 48.9133 15.3459C48.944 15.7547 49.036 16.1321 49.22 16.5094C49.3733 16.8239 49.588 17.0755 49.864 17.2956C50.508 17.7673 51.2133 17.8931 51.9493 17.6729C52.624 17.4843 53.084 17.0126 53.3906 16.3836C53.5746 15.9434 53.636 15.5031 53.636 14.9685Z" fill="#171460"/>
<path d="M64.9214 18.7106C64.86 18.8049 64.8294 18.8678 64.7067 19.0251C64.4 19.371 64.032 19.7169 63.6334 19.8741C63.2347 20.0314 62.836 20.1257 62.4067 20.1886C61.732 20.2515 61.0574 20.1886 60.4134 19.937C59.7694 19.7169 59.2174 19.3081 58.788 18.8049C58.3894 18.3332 58.1134 17.7986 57.8987 17.2012C57.7454 16.7609 57.6534 16.3207 57.6227 15.849C57.592 15.4402 57.5614 14.937 57.592 14.4968C57.6534 13.5534 57.8987 12.6729 58.42 11.8867C59.0334 10.9119 59.984 10.1886 61.088 9.93701C61.548 9.81122 62.008 9.81122 62.468 9.84267C62.9894 9.87412 63.4187 9.90556 63.94 10.2515C64.3694 10.503 64.5534 10.7232 64.7987 11.0376C64.7987 11.0376 64.7987 10.9433 64.8294 10.9747C64.8294 10.9433 64.8294 10.9433 64.8294 10.9119C64.8294 9.37097 64.86 8.2389 64.86 6.69802C64.86 6.06909 65.3507 5.4716 65.9641 5.40871C66.6694 5.31437 67.2827 5.78607 67.4054 6.50934C67.436 6.60368 67.436 6.69802 67.436 6.79236C67.436 10.6288 67.4054 13.8049 67.4054 17.6729C67.4054 18.0188 67.4054 18.4276 67.4054 18.7735C67.4054 19.1508 67.2827 19.4968 67.0067 19.7483C66.6387 20.0628 66.24 20.1571 65.78 19.9999C65.32 19.8427 65.044 19.5282 64.9214 19.0565C64.8907 18.9622 64.8907 18.8364 64.8907 18.8049C64.9214 18.7735 64.9214 18.742 64.9214 18.7106ZM60.1067 15.0628C60.1067 15.1257 60.1067 15.2515 60.1374 15.3773C60.168 15.7861 60.26 16.2578 60.4747 16.6351C60.6894 17.0439 61.0267 17.3898 61.4254 17.61C61.824 17.7986 62.2227 17.893 62.652 17.8615C63.0507 17.8301 63.4187 17.7043 63.756 17.4842C64.2467 17.1697 64.5227 16.6351 64.7067 16.0691C64.86 15.6288 64.86 15.1571 64.8294 14.6854C64.7987 14.2766 64.7067 13.8993 64.5227 13.5219C64.3694 13.2075 64.1547 12.9559 63.8787 12.7358C63.2347 12.2641 62.5294 12.1383 61.7934 12.3584C61.1187 12.5471 60.6587 13.0188 60.352 13.6477C60.1987 14.088 60.1374 14.5597 60.1067 15.0628Z" fill="#171460"/>
<path d="M38.1493 20.0627C36.2787 20.0627 34.776 18.4904 34.776 16.5722V6.7294C34.776 5.97468 35.3587 5.3772 36.0947 5.3772C36.8307 5.3772 37.4133 5.97468 37.4133 6.7294V16.5722C37.4133 17.0124 37.7507 17.3583 38.1493 17.3583C38.8853 17.3583 39.468 17.9558 39.468 18.7105C39.468 19.4652 38.8853 20.0627 38.1493 20.0627Z" fill="#171460"/>
<path d="M19.5346 9.46536C19.5346 9.4968 19.5346 9.5597 19.5346 9.59114V9.62259C19.5346 9.65404 19.5346 9.65403 19.504 9.68548C19.4426 9.84271 19.3506 9.9685 19.228 10.0314C19.1973 10.0628 19.1666 10.0628 19.136 10.0628C19.136 10.0628 19.136 10.0628 19.1053 10.0628C19.044 10.0943 18.952 10.1257 18.86 10.1257C18.7373 10.1257 18.6453 10.0943 18.5533 10.0628C18.5226 10.0628 18.492 10.0314 18.492 10.0314C18.3386 9.90561 18.216 9.74837 18.1853 9.52825C18.1546 9.33957 18.1546 9.11944 18.0933 8.93076C17.9706 8.42762 17.756 7.95592 17.48 7.51567C17.204 7.07542 16.836 6.72951 16.4373 6.41504C16.1613 6.22636 15.8546 6.06913 15.5173 5.97479C15.18 5.88045 14.9653 5.56598 14.996 5.22007C15.0266 4.84271 15.3333 4.62259 15.6093 4.59114C15.7013 4.59114 15.7626 4.59114 15.8546 4.62259C16.3146 4.74837 16.7133 4.93705 17.112 5.18863C17.8786 5.69177 18.4613 6.38359 18.9213 7.2012C19.136 7.61001 19.2893 8.01882 19.412 8.49051C19.4733 8.77353 19.5346 9.05655 19.5346 9.33957C19.5346 9.37102 19.5346 9.40246 19.5346 9.46536C19.5346 9.43391 19.5346 9.46536 19.5346 9.46536ZM21.988 10.0943H21.712C21.712 9.99995 21.712 9.87416 21.6813 9.77982C21.6506 9.40246 21.5586 9.05655 21.4666 8.67919C21.0373 7.01253 20.1786 5.62888 18.952 4.4968C17.756 3.39617 16.376 2.7358 14.8426 2.45278C14.9346 2.23265 14.996 2.01252 14.996 1.76095C14.996 0.849003 14.2906 0.125732 13.4013 0.125732C12.5426 0.125732 11.8066 0.849003 11.8066 1.76095C11.8066 2.01252 11.868 2.23265 11.96 2.42133C11.5613 2.48422 11.132 2.61001 10.7333 2.7358C9.72131 3.11315 8.80131 3.64775 8.00397 4.37102H1.47197C0.827974 4.40246 0.306641 4.93705 0.306641 5.59743C0.306641 6.25781 0.827974 6.7924 1.47197 6.7924H6.19464C6.10264 6.94963 6.04131 7.10687 5.94931 7.2641H3.09731C2.45331 7.2641 1.93197 7.79869 1.93197 8.45907C1.93197 9.11944 2.45331 9.65404 3.09731 9.65404H5.27464C5.24397 9.81127 5.24397 9.9685 5.21331 10.1257H4.69197C4.04797 10.1257 3.52664 10.6603 3.52664 11.3207C3.52664 11.9811 4.04797 12.5157 4.69197 12.5157H11.04L11.0093 13.8364L7.14531 15.4088C6.83864 15.5345 6.59331 15.7861 6.50131 16.132C6.40931 16.4465 6.43997 16.8238 6.59331 17.1069L7.60531 18.8993C7.81997 19.2767 8.21864 19.4968 8.58664 19.4968C8.77064 19.4968 8.98531 19.4339 9.16931 19.3396C9.72131 18.9937 9.90531 18.2704 9.56797 17.7043L9.23064 17.1069L12.5733 15.6918C13.0026 15.5031 13.2786 15.0943 13.2786 14.6226L13.34 12.4528H13.7693L15.1186 15.2515L13.34 18.2389C13.1253 18.6163 13.0946 19.0566 13.3093 19.4339C13.524 19.8113 13.892 20.0314 14.3213 20.0314H16.4373C17.0813 20.0314 17.6026 19.4968 17.6026 18.8364C17.6026 18.176 17.0813 17.6415 16.4373 17.6415H16.376L17.4186 15.9119C17.6333 15.566 17.664 15.1257 17.48 14.7484L16.3453 12.3899H22.0186C22.6626 12.3899 23.184 11.8553 23.184 11.1949C23.1226 10.6289 22.632 10.0943 21.988 10.0943Z" fill="#171460"/>
</svg>
